<svg width="100%" height="100%" xmlns="http://www.w3.org/2000/svg">
  <defs>
    <pattern id="stars" x="0" y="0" width="100" height="100" patternUnits="userSpaceOnUse">
      <circle cx="10" cy="10" r="0.5" fill="white" opacity="0.3"/>
      <circle cx="30" cy="20" r="0.3" fill="white" opacity="0.4"/>
      <circle cx="50" cy="15" r="0.4" fill="white" opacity="0.5"/>
      <circle cx="70" cy="25" r="0.2" fill="white" opacity="0.3"/>
      <circle cx="90" cy="10" r="0.6" fill="white" opacity="0.4"/>
      <circle cx="15" cy="40" r="0.3" fill="white" opacity="0.3"/>
      <circle cx="35" cy="50" r="0.5" fill="white" opacity="0.4"/>
      <circle cx="55" cy="45" r="0.2" fill="white" opacity="0.5"/>
      <circle cx="75" cy="55" r="0.4" fill="white" opacity="0.3"/>
      <circle cx="95" cy="40" r="0.3" fill="white" opacity="0.4"/>
      <circle cx="20" cy="70" r="0.4" fill="white" opacity="0.3"/>
      <circle cx="40" cy="80" r="0.2" fill="white" opacity="0.5"/>
      <circle cx="60" cy="75" r="0.6" fill="white" opacity="0.4"/>
      <circle cx="80" cy="85" r="0.3" fill="white" opacity="0.3"/>
      <circle cx="5" cy="60" r="0.3" fill="white" opacity="0.4"/>
      <circle cx="25" cy="90" r="0.5" fill="white" opacity="0.3"/>
      <circle cx="45" cy="95" r="0.2" fill="white" opacity="0.5"/>
      <circle cx="65" cy="90" r="0.4" fill="white" opacity="0.4"/>
      <circle cx="85" cy="95" r="0.3" fill="white" opacity="0.3"/>
    </pattern>
  </defs>
  <rect width="100%" height="100%" fill="url(#stars)"/>
</svg> 